<svg width="675" height="793" viewBox="0 0 675 793" fill="none" xmlns="http://www.w3.org/2000/svg">
<path d="M87.5 75.0002C80.5965 75.0002 75 80.5962 75 87.5002V565.015C75 569.48 77.3845 573.61 81.2545 575.84L324.19 715.97C327.971 718.15 332.615 718.2 336.443 716.105L593.505 575.24C597.51 573.045 600 568.845 600 564.28V87.5002C600 80.5962 594.405 75.0002 587.5 75.0002H87.5ZM0 87.5002C0 39.1751 39.175 0 87.5 0H587.5C635.825 0 675 39.1752 675 87.5002V564.28C675 596.24 657.575 625.655 629.55 641.015L372.484 781.875C345.692 796.555 313.182 796.2 286.717 780.935L43.781 640.81C16.691 625.185 0 596.29 0 565.015V87.5002ZM187.5 212.5C187.5 191.789 204.29 175 225 175H455.77C476.48 175 493.27 191.789 493.27 212.5V517.31C493.27 531.51 485.245 544.495 472.54 550.85L357.155 608.54C346.598 613.82 334.172 613.82 323.614 608.54L208.229 550.85C195.525 544.495 187.5 531.51 187.5 517.31V488.462C187.5 467.751 204.29 450.962 225 450.962C245.71 450.962 262.5 467.751 262.5 488.462V494.131L340.384 533.075L418.269 494.131V410.577H287.5C266.79 410.577 250 393.788 250 373.077C250 352.366 266.79 335.577 287.5 335.577H418.269V250H225C204.29 250 187.5 233.211 187.5 212.5Z" fill="white"/>
</svg>
