<svg width="675" height="793" viewBox="0 0 675 793" fill="none" xmlns="http://www.w3.org/2000/svg">
<path d="M87.5 75C80.5965 75 75 80.5965 75 87.5V565.015C75 569.48 77.3845 573.61 81.2545 575.84L324.19 715.97C327.971 718.15 332.615 718.2 336.443 716.105L593.505 575.24C597.51 573.045 600 568.845 600 564.28V87.5C600 80.5965 594.405 75 587.5 75H87.5ZM0 87.5C0 39.1751 39.175 0 87.5 0H587.5C635.825 0 675 39.1751 675 87.5V564.28C675 596.24 657.575 625.655 629.55 641.015L372.484 781.875C345.692 796.555 313.182 796.2 286.717 780.935L43.781 640.81C16.691 625.185 0 596.29 0 565.015V87.5ZM187.5 212.5C187.5 191.79 204.29 175 225 175H455.77C476.48 175 493.27 191.79 493.27 212.5C493.27 233.21 476.48 250 455.77 250H262.5V335.577H455.77C476.48 335.577 493.27 352.366 493.27 373.077V517.31C493.27 531.51 485.245 544.495 472.54 550.85L357.155 608.54C346.598 613.82 334.172 613.82 323.614 608.54L208.229 550.85C195.525 544.495 187.5 531.51 187.5 517.31V488.461C187.5 467.751 204.29 450.961 225 450.961C245.71 450.961 262.5 467.751 262.5 488.461V494.132L340.384 533.075L418.269 494.132V410.577H225C204.29 410.577 187.5 393.788 187.5 373.077V212.5Z" fill="white"/>
</svg>
