<svg width="137" height="135" viewBox="0 0 137 135" fill="none" xmlns="http://www.w3.org/2000/svg">
<mask id="path-1-outside-1_32_14" maskUnits="userSpaceOnUse" x="5" y="36" width="59" height="98" fill="black">
<rect fill="white" x="5" y="36" width="59" height="98"/>
<path d="M34.688 132.28C25.984 132.28 19.1147 129.805 14.08 124.856C9.13067 119.907 6.656 113.123 6.656 104.504H16.768C16.768 110.392 18.3467 115 21.504 118.328C24.6613 121.571 29.056 123.192 34.688 123.192C40.32 123.192 44.7147 121.571 47.872 118.328C51.1147 115 52.736 110.392 52.736 104.504V46.904H29.824V37.56H62.848V104.504C62.848 113.123 60.3307 119.907 55.296 124.856C50.2613 129.805 43.392 132.28 34.688 132.28Z"/>
</mask>
<path d="M34.688 132.28C25.984 132.28 19.1147 129.805 14.08 124.856C9.13067 119.907 6.656 113.123 6.656 104.504H16.768C16.768 110.392 18.3467 115 21.504 118.328C24.6613 121.571 29.056 123.192 34.688 123.192C40.32 123.192 44.7147 121.571 47.872 118.328C51.1147 115 52.736 110.392 52.736 104.504V46.904H29.824V37.56H62.848V104.504C62.848 113.123 60.3307 119.907 55.296 124.856C50.2613 129.805 43.392 132.28 34.688 132.28Z" fill="#F98125"/>
<path d="M14.08 124.856L13.3729 125.563L13.379 125.569L14.08 124.856ZM6.656 104.504V103.504H5.656V104.504H6.656ZM16.768 104.504H17.768V103.504H16.768V104.504ZM21.504 118.328L20.7785 119.016L20.7875 119.026L21.504 118.328ZM47.872 118.328L47.1558 117.63L47.1555 117.63L47.872 118.328ZM52.736 46.904H53.736V45.904H52.736V46.904ZM29.824 46.904H28.824V47.904H29.824V46.904ZM29.824 37.56V36.56H28.824V37.56H29.824ZM62.848 37.56H63.848V36.56H62.848V37.56ZM55.296 124.856L54.595 124.143L54.595 124.143L55.296 124.856ZM34.688 131.28C26.1816 131.28 19.5872 128.868 14.781 124.143L13.379 125.569C18.6422 130.743 25.7864 133.28 34.688 133.28V131.28ZM14.7871 124.149C10.0668 119.429 7.656 112.923 7.656 104.504H5.656C5.656 113.323 8.19451 120.385 13.3729 125.563L14.7871 124.149ZM6.656 105.504H16.768V103.504H6.656V105.504ZM15.768 104.504C15.768 110.573 17.3991 115.454 20.7785 119.016L22.2295 117.64C19.2942 114.546 17.768 110.211 17.768 104.504H15.768ZM20.7875 119.026C24.1769 122.507 28.8562 124.192 34.688 124.192V122.192C29.2558 122.192 25.1457 120.635 22.2205 117.63L20.7875 119.026ZM34.688 124.192C40.5198 124.192 45.1991 122.507 48.5885 119.026L47.1555 117.63C44.2303 120.635 40.1202 122.192 34.688 122.192V124.192ZM48.5882 119.026C52.0581 115.465 53.736 110.58 53.736 104.504H51.736C51.736 110.204 50.1712 114.535 47.1558 117.63L48.5882 119.026ZM53.736 104.504V46.904H51.736V104.504H53.736ZM52.736 45.904H29.824V47.904H52.736V45.904ZM30.824 46.904V37.56H28.824V46.904H30.824ZM29.824 38.56H62.848V36.56H29.824V38.56ZM61.848 37.56V104.504H63.848V37.56H61.848ZM61.848 104.504C61.848 112.918 59.3976 119.422 54.595 124.143L55.997 125.569C61.2638 120.392 63.848 113.328 63.848 104.504H61.848ZM54.595 124.143C49.7888 128.868 43.1944 131.28 34.688 131.28V133.28C43.5896 133.28 50.7338 130.743 55.997 125.569L54.595 124.143Z" fill="#F98125" mask="url(#path-1-outside-1_32_14)"/>
<mask id="path-3-outside-2_32_14" maskUnits="userSpaceOnUse" x="24" y="51" width="21" height="69" fill="black">
<rect fill="white" x="24" y="51" width="21" height="69"/>
<path d="M32.872 76V67.392L25.928 52.64H29.512L33.64 61.472C33.9173 62.048 34.1413 62.592 34.312 63.104C34.4827 63.5947 34.6 63.9787 34.664 64.256C34.7067 63.9787 34.8133 63.5947 34.984 63.104C35.176 62.592 35.4 62.048 35.656 61.472L39.688 52.64H43.272L36.328 67.392V76H32.872ZM34.6 118.32C33.1493 118.32 31.8907 118.053 30.824 117.52C29.7787 116.965 28.968 116.176 28.392 115.152C27.8373 114.107 27.56 112.891 27.56 111.504V101.136C27.56 99.728 27.8373 98.512 28.392 97.488C28.968 96.464 29.7787 95.6853 30.824 95.152C31.8907 94.5973 33.1493 94.32 34.6 94.32C36.0507 94.32 37.2987 94.5973 38.344 95.152C39.4107 95.6853 40.2213 96.464 40.776 97.488C41.352 98.512 41.64 99.7173 41.64 101.104V111.504C41.64 112.891 41.352 114.107 40.776 115.152C40.2213 116.176 39.4107 116.965 38.344 117.52C37.2987 118.053 36.0507 118.32 34.6 118.32ZM34.6 115.248C35.7733 115.248 36.6587 114.928 37.256 114.288C37.8747 113.627 38.184 112.699 38.184 111.504V101.136C38.184 99.92 37.8747 98.992 37.256 98.352C36.6587 97.712 35.7733 97.392 34.6 97.392C33.448 97.392 32.5627 97.712 31.944 98.352C31.3253 98.992 31.016 99.92 31.016 101.136V111.504C31.016 112.699 31.3253 113.627 31.944 114.288C32.5627 114.928 33.448 115.248 34.6 115.248Z"/>
</mask>
<path d="M32.872 76V67.392L25.928 52.64H29.512L33.64 61.472C33.9173 62.048 34.1413 62.592 34.312 63.104C34.4827 63.5947 34.6 63.9787 34.664 64.256C34.7067 63.9787 34.8133 63.5947 34.984 63.104C35.176 62.592 35.4 62.048 35.656 61.472L39.688 52.64H43.272L36.328 67.392V76H32.872ZM34.6 118.32C33.1493 118.32 31.8907 118.053 30.824 117.52C29.7787 116.965 28.968 116.176 28.392 115.152C27.8373 114.107 27.56 112.891 27.56 111.504V101.136C27.56 99.728 27.8373 98.512 28.392 97.488C28.968 96.464 29.7787 95.6853 30.824 95.152C31.8907 94.5973 33.1493 94.32 34.6 94.32C36.0507 94.32 37.2987 94.5973 38.344 95.152C39.4107 95.6853 40.2213 96.464 40.776 97.488C41.352 98.512 41.64 99.7173 41.64 101.104V111.504C41.64 112.891 41.352 114.107 40.776 115.152C40.2213 116.176 39.4107 116.965 38.344 117.52C37.2987 118.053 36.0507 118.32 34.6 118.32ZM34.6 115.248C35.7733 115.248 36.6587 114.928 37.256 114.288C37.8747 113.627 38.184 112.699 38.184 111.504V101.136C38.184 99.92 37.8747 98.992 37.256 98.352C36.6587 97.712 35.7733 97.392 34.6 97.392C33.448 97.392 32.5627 97.712 31.944 98.352C31.3253 98.992 31.016 99.92 31.016 101.136V111.504C31.016 112.699 31.3253 113.627 31.944 114.288C32.5627 114.928 33.448 115.248 34.6 115.248Z" fill="#F98125"/>
<path d="M32.872 76H31.872V77H32.872V76ZM32.872 67.392H33.872V67.1684L33.7768 66.9661L32.872 67.392ZM25.928 52.64V51.64H24.352L25.0232 53.0659L25.928 52.64ZM29.512 52.64L30.4179 52.2166L30.1484 51.64H29.512V52.64ZM33.64 61.472L32.734 61.8955L32.739 61.9058L33.64 61.472ZM34.312 63.104L33.3632 63.4203L33.3675 63.4325L34.312 63.104ZM34.664 64.256L33.6896 64.4809L35.6524 64.4081L34.664 64.256ZM34.984 63.104L34.0477 62.7529L34.0435 62.7641L34.0395 62.7755L34.984 63.104ZM35.656 61.472L34.7463 61.0567L34.7422 61.0659L35.656 61.472ZM39.688 52.64V51.64H39.0452L38.7783 52.2247L39.688 52.64ZM43.272 52.64L44.1768 53.0659L44.848 51.64H43.272V52.64ZM36.328 67.392L35.4232 66.9661L35.328 67.1684V67.392H36.328ZM36.328 76V77H37.328V76H36.328ZM33.872 76V67.392H31.872V76H33.872ZM33.7768 66.9661L26.8328 52.2141L25.0232 53.0659L31.9672 67.8179L33.7768 66.9661ZM25.928 53.64H29.512V51.64H25.928V53.64ZM28.6061 53.0634L32.7341 61.8954L34.5459 61.0486L30.4179 52.2166L28.6061 53.0634ZM32.739 61.9058C33.0012 62.4504 33.2082 62.9549 33.3633 63.4202L35.2607 62.7878C35.0745 62.2291 34.8335 61.6456 34.541 61.0382L32.739 61.9058ZM33.3675 63.4325C33.5343 63.912 33.6377 64.2561 33.6896 64.4809L35.6384 64.0311C35.5623 63.7012 35.4311 63.2773 35.2565 62.7755L33.3675 63.4325ZM35.6524 64.4081C35.6811 64.2214 35.764 63.9054 35.9285 63.4325L34.0395 62.7755C33.8627 63.2839 33.7323 63.7359 33.6756 64.1039L35.6524 64.4081ZM35.9203 63.4551C36.1044 62.9642 36.3207 62.4387 36.5698 61.8781L34.7422 61.0659C34.4793 61.6573 34.2476 62.2198 34.0477 62.7529L35.9203 63.4551ZM36.5657 61.8873L40.5977 53.0553L38.7783 52.2247L34.7463 61.0567L36.5657 61.8873ZM39.688 53.64H43.272V51.64H39.688V53.64ZM42.3672 52.2141L35.4232 66.9661L37.2328 67.8179L44.1768 53.0659L42.3672 52.2141ZM35.328 67.392V76H37.328V67.392H35.328ZM36.328 75H32.872V77H36.328V75ZM30.824 117.52L30.3553 118.403L30.366 118.409L30.3768 118.414L30.824 117.52ZM28.392 115.152L27.5087 115.621L27.5144 115.632L27.5204 115.642L28.392 115.152ZM28.392 97.488L27.5204 96.9977L27.5165 97.0047L27.5127 97.0117L28.392 97.488ZM30.824 95.152L31.2785 96.0428L31.2854 96.0392L30.824 95.152ZM38.344 95.152L37.8753 96.0353L37.886 96.041L37.8968 96.0464L38.344 95.152ZM40.776 97.488L39.8967 97.9643L39.9005 97.9713L39.9044 97.9783L40.776 97.488ZM40.776 115.152L39.9001 114.669L39.8967 114.676L40.776 115.152ZM38.344 117.52L38.7985 118.411L38.8054 118.407L38.344 117.52ZM37.256 114.288L36.5257 113.605L36.5249 113.606L37.256 114.288ZM37.256 98.352L36.5249 99.0343L36.5309 99.0407L36.537 99.047L37.256 98.352ZM31.944 98.352L32.663 99.047L32.663 99.047L31.944 98.352ZM31.944 114.288L31.2137 114.971L31.2193 114.977L31.225 114.983L31.944 114.288ZM34.6 117.32C33.2715 117.32 32.1722 117.076 31.2712 116.626L30.3768 118.414C31.6092 119.031 33.0272 119.32 34.6 119.32V117.32ZM31.2927 116.637C30.4152 116.171 29.745 115.518 29.2636 114.662L27.5204 115.642C28.191 116.834 29.1421 117.76 30.3553 118.403L31.2927 116.637ZM29.2753 114.683C28.8095 113.805 28.56 112.755 28.56 111.504H26.56C26.56 113.026 26.8652 114.408 27.5087 115.621L29.2753 114.683ZM28.56 111.504V101.136H26.56V111.504H28.56ZM28.56 101.136C28.56 99.8598 28.8108 98.8144 29.2713 97.9643L27.5127 97.0117C26.8639 98.2096 26.56 99.5962 26.56 101.136H28.56ZM29.2636 97.9783C29.7431 97.1257 30.4088 96.4865 31.2785 96.0428L30.3695 94.2612C29.1485 94.8842 28.1929 95.8023 27.5204 96.9977L29.2636 97.9783ZM31.2854 96.0392C32.183 95.5725 33.2771 95.32 34.6 95.32V93.32C33.0216 93.32 31.5984 93.6222 30.3626 94.2648L31.2854 96.0392ZM34.6 95.32C35.9237 95.32 37.0034 95.5727 37.8753 96.0353L38.8127 94.2686C37.5939 93.622 36.1776 93.32 34.6 93.32V95.32ZM37.8968 96.0464C38.7847 96.4904 39.4422 97.1253 39.8967 97.9643L41.6553 97.0117C41.0004 95.8027 40.0367 94.8803 38.7912 94.2576L37.8968 96.0464ZM39.9044 97.9783C40.3822 98.8276 40.64 99.858 40.64 101.104H42.64C42.64 99.5767 42.3218 98.1964 41.6476 96.9977L39.9044 97.9783ZM40.64 101.104V111.504H42.64V101.104H40.64ZM40.64 111.504C40.64 112.749 40.3824 113.794 39.9002 114.669L41.6518 115.635C42.3216 114.419 42.64 113.032 42.64 111.504H40.64ZM39.8967 114.676C39.4404 115.518 38.7782 116.167 37.8826 116.633L38.8054 118.407C40.0432 117.764 41.0023 116.834 41.6553 115.628L39.8967 114.676ZM37.8895 116.629C37.0143 117.076 35.9293 117.32 34.6 117.32V119.32C36.172 119.32 37.583 119.031 38.7985 118.411L37.8895 116.629ZM34.6 116.248C35.9522 116.248 37.1426 115.875 37.9871 114.97L36.5249 113.606C36.1747 113.981 35.5945 114.248 34.6 114.248V116.248ZM37.9863 114.971C38.8277 114.072 39.184 112.869 39.184 111.504H37.184C37.184 112.528 36.9216 113.182 36.5257 113.605L37.9863 114.971ZM39.184 111.504V101.136H37.184V111.504H39.184ZM39.184 101.136C39.184 99.7574 38.8315 98.543 37.975 97.657L36.537 99.047C36.9178 99.441 37.184 100.083 37.184 101.136H39.184ZM37.9871 97.6697C37.1426 96.7649 35.9522 96.392 34.6 96.392V98.392C35.5945 98.392 36.1747 98.6591 36.5249 99.0343L37.9871 97.6697ZM34.6 96.392C33.2606 96.392 32.0833 96.7691 31.225 97.657L32.663 99.047C33.0421 98.6549 33.6354 98.392 34.6 98.392V96.392ZM31.225 97.657C30.3685 98.543 30.016 99.7574 30.016 101.136H32.016C32.016 100.083 32.2822 99.441 32.663 99.047L31.225 97.657ZM30.016 101.136V111.504H32.016V101.136H30.016ZM30.016 111.504C30.016 112.869 30.3723 114.072 31.2137 114.971L32.6743 113.605C32.2784 113.182 32.016 112.528 32.016 111.504H30.016ZM31.225 114.983C32.0833 115.871 33.2606 116.248 34.6 116.248V114.248C33.6354 114.248 33.0421 113.985 32.663 113.593L31.225 114.983Z" fill="#F98125" mask="url(#path-3-outside-2_32_14)"/>
<path d="M77.6863 38L62 131H64.9412H72.2941L87 38H77.6863Z" fill="#F98125" stroke="#F98125"/>
<path d="M110.686 38L95 131H97.9412H105.294L120 38H110.686Z" fill="#F98125" stroke="#F98125"/>
<path d="M93.6863 38L78 131H80.9412H88.2941L103 38H93.6863Z" fill="#F98125" stroke="#F98125"/>
<path d="M126.686 38L111 131H113.941H121.294L136 38H126.686Z" fill="#F98125" stroke="#F98125"/>
<path d="M81.5 41L85 127.5" stroke="#F98125" stroke-width="5"/>
<path d="M113 38L116.5 124.5" stroke="#F98125" stroke-width="5"/>
</svg>
