<svg width="644" height="639" viewBox="0 0 644 639" fill="none" xmlns="http://www.w3.org/2000/svg">
<path d="M163.742 480.255C207.367 480.255 242.732 444.89 242.732 401.265C242.732 357.64 207.367 322.275 163.742 322.275C120.117 322.275 84.752 357.64 84.752 401.265C84.752 444.89 120.117 480.255 163.742 480.255Z" stroke="white" stroke-width="63.6667" stroke-miterlimit="10"/>
<path d="M32 638.511V610.892C32.073 575.974 45.9763 542.508 70.667 517.817C95.3576 493.126 128.824 479.223 163.742 479.15C198.708 479.15 232.245 493.021 256.996 517.72C281.746 542.418 295.687 575.927 295.761 610.892V638.511" stroke="white" stroke-width="63.6667" stroke-miterlimit="10"/>
<path d="M243.008 84.7521V243.008C243.008 256.999 248.566 270.417 258.459 280.31C268.352 290.203 281.77 295.761 295.76 295.761H374.75V349.065L453.741 296.313H559.245C566.219 296.313 573.124 294.931 579.561 292.245C585.997 289.56 591.837 285.625 596.743 280.667C601.649 275.71 605.523 269.83 608.141 263.365C610.759 256.901 612.07 249.982 611.997 243.008V84.7521C611.997 70.7614 606.439 57.3437 596.546 47.4507C586.653 37.5578 573.236 32 559.245 32H295.76C281.77 32 268.352 37.5578 258.459 47.4507C248.566 57.3437 243.008 70.7614 243.008 84.7521Z" stroke="white" stroke-width="63.6667" stroke-miterlimit="10"/>
</svg>
