<svg width="600" height="550" viewBox="0 0 600 550" fill="none" xmlns="http://www.w3.org/2000/svg">
<path d="M600 372.5C600 302.5 562.5 247.5 507.5 220C532.5 195 550 162.5 550 125C550 55 495 0 425 0C372.5 0 330 30 310 75C307.5 75 302.5 75 300 75C297.5 75 292.5 75 290 75C270 30 227.5 0 175 0C105 0 50 55 50 125C50 162.5 67.5 195 92.5 220C37.5 247.5 0 305 0 372.5V475H125V550H475V475H600V372.5ZM425 50C467.5 50 500 82.5 500 125C500 165 467.5 200 425 200C425 152.5 397.5 112.5 357.5 90C370 65 395 50 425 50ZM375 200C375 242.5 342.5 275 300 275C257.5 275 225 242.5 225 200C225 157.5 257.5 125 300 125C342.5 125 375 157.5 375 200ZM175 50C205 50 230 65 242.5 90C202.5 112.5 175 152.5 175 200C132.5 200 100 167.5 100 125C100 82.5 132.5 50 175 50ZM127.5 425H50V372.5C50 302.5 102.5 250 175 250C177.5 250 180 250 182.5 250C190 267.5 202.5 282.5 215 295C167.5 320 135 367.5 127.5 425ZM425 500H175V447.5C175 377.5 230 325 300 325C372.5 325 425 377.5 425 447.5V500ZM550 425H472.5C465 367.5 430 320 380 295C395 282.5 405 267.5 412.5 250C415 250 417.5 250 422.5 250C495 250 547.5 302.5 547.5 372.5V425H550Z" fill="white"/>
</svg>
