<svg width="450" height="600" viewBox="0 0 450 600" fill="none" xmlns="http://www.w3.org/2000/svg">
<path d="M450 225C450 308.7 394.8 411.375 342.85 465.45C329.675 479.175 320.3 495.15 310.375 512.025C286.175 553.275 258.75 600 175 600C84.6 600 48.075 548.3 23.925 514.075C17.975 505.65 12.325 497.65 7.32501 492.675L42.675 457.325C50.7 465.35 57.525 475 64.75 485.25C87.25 517.075 110.5 550 175 550C230.125 550 244.9 524.825 267.25 486.725C277.675 468.95 289.525 448.8 306.775 430.825C351.6 384.15 400 292.175 400 225C400 128.5 321.5 50 225 50C128.5 50 50 128.5 50 225H0C0 100.95 100.95 0 225 0C349.05 0 450 100.95 450 225ZM125 325H100V375H125C155.15 375 200 355.025 200 300C200 259.025 175.15 237.5 150 229.175V225.15C150.15 212.575 154.425 150 225 150C295.575 150 299.85 212.575 300 225.125L325 225H350C350 181.775 323.875 100 225 100C126.125 100 100 181.775 100 225L100.35 274.375L124.7 275C136.25 275.3 150 279.875 150 300C150 320.125 136.25 324.7 125 325Z" fill="white"/>
</svg>
