<svg width="634" height="667" viewBox="0 0 634 667" fill="none" xmlns="http://www.w3.org/2000/svg">
<path d="M366.647 166.667H399.98C408.817 166.678 417.289 170.194 423.537 176.442C429.786 182.691 433.302 191.163 433.313 200V233.333C433.313 242.174 436.825 250.652 443.076 256.903C449.328 263.155 457.806 266.667 466.647 266.667C475.487 266.667 483.966 263.155 490.217 256.903C496.468 250.652 499.98 242.174 499.98 233.333V200C499.951 173.487 489.406 148.069 470.659 129.321C451.911 110.574 426.493 100.029 399.98 99.9999H366.647C357.806 99.9999 349.328 103.512 343.076 109.763C336.825 116.014 333.313 124.493 333.313 133.333C333.313 142.174 336.825 150.652 343.076 156.903C349.328 163.155 357.806 166.667 366.647 166.667ZM233.313 466.667H199.98C191.143 466.655 182.671 463.14 176.422 456.891C170.174 450.642 166.658 442.17 166.647 433.333V400C166.647 391.159 163.135 382.681 156.884 376.43C150.632 370.178 142.154 366.667 133.313 366.667C124.473 366.667 115.994 370.178 109.743 376.43C103.492 382.681 99.9799 391.159 99.9799 400V433.333C100.009 459.846 110.554 485.265 129.301 504.012C148.049 522.759 173.467 533.304 199.98 533.333H233.313C242.154 533.333 250.632 529.821 256.884 523.57C263.135 517.319 266.647 508.84 266.647 500C266.647 491.159 263.135 482.681 256.884 476.43C250.632 470.178 242.154 466.667 233.313 466.667ZM599.98 433.333C608.82 433.333 617.299 429.821 623.55 423.57C629.801 417.319 633.313 408.84 633.313 400C633.313 391.159 629.801 382.681 623.55 376.43C617.299 370.178 608.82 366.667 599.98 366.667H499.98V350C499.98 341.159 496.468 332.681 490.217 326.43C483.966 320.178 475.487 316.667 466.647 316.667C457.806 316.667 449.328 320.178 443.076 326.43C436.825 332.681 433.313 341.159 433.313 350V366.667H333.313C324.473 366.667 315.994 370.178 309.743 376.43C303.492 382.681 299.98 391.159 299.98 400C299.98 408.84 303.492 417.319 309.743 423.57C315.994 429.821 324.473 433.333 333.313 433.333H506.122C498.581 463.968 484.661 492.668 465.271 517.556C457.337 507.27 450.32 496.309 444.3 484.798C442.303 480.904 439.559 477.441 436.225 474.607C432.89 471.773 429.03 469.624 424.865 468.282C420.699 466.94 416.311 466.431 411.949 466.785C407.587 467.139 403.337 468.349 399.443 470.345C395.549 472.341 392.086 475.085 389.252 478.42C386.418 481.755 384.269 485.615 382.926 489.78C380.216 498.192 380.958 507.337 384.99 515.202C393.967 532.55 404.678 548.945 416.96 564.135C392.776 581.695 365.275 594.158 336.128 600.767C327.506 602.668 319.991 607.913 315.232 615.349C310.472 622.786 308.857 631.807 310.741 640.432C312.625 649.058 317.853 656.585 325.28 661.36C332.706 666.135 341.724 667.769 350.353 665.903C392.176 656.654 431.408 638.187 465.187 611.849C499.249 638.201 538.74 656.658 580.806 665.887C585.08 666.83 589.499 666.921 593.809 666.156C598.119 665.391 602.236 663.784 605.926 661.428C609.615 659.072 612.804 656.012 615.311 652.423C617.817 648.835 619.593 644.787 620.535 640.513C621.478 636.238 621.569 631.819 620.804 627.509C620.039 623.199 618.433 619.082 616.076 615.393C613.72 611.703 610.66 608.514 607.072 606.008C603.483 603.501 599.436 601.726 595.161 600.783C565.821 594.26 538.092 581.903 513.624 564.447C544.447 526.505 565.223 481.415 574.037 433.333H599.98ZM200.972 308.089C203.139 316.643 208.609 323.988 216.183 328.516C223.757 333.043 232.817 334.383 241.377 332.242C249.937 330.101 257.3 324.653 261.85 317.093C266.4 309.533 267.768 300.477 265.653 291.911L207.075 57.5846C202.961 41.136 193.467 26.5345 180.102 16.1009C166.737 5.66719 150.268 0 133.312 0C116.357 0 99.888 5.66719 86.523 16.1009C73.158 26.5345 63.6637 41.136 59.5493 57.5846L0.971956 291.911C-1.14312 300.477 0.224448 309.533 4.77492 317.093C9.32538 324.653 16.6875 330.101 25.2477 332.242C33.8079 334.383 42.8679 333.043 50.4418 328.516C58.0157 323.988 63.4857 316.643 65.653 308.089L84.34 233.333H182.285L200.972 308.089ZM101.007 166.667L124.23 73.7629C124.928 71.9186 126.171 70.3303 127.793 69.2095C129.415 68.0886 131.34 67.4882 133.312 67.4882C135.284 67.4882 137.209 68.0886 138.832 69.2095C140.454 70.3303 141.697 71.9186 142.394 73.7629L165.618 166.667H101.007Z" fill="white"/>
</svg>
