<svg width="491" height="559" viewBox="0 0 491 559" fill="none" xmlns="http://www.w3.org/2000/svg">
<path d="M268.876 0C168.439 0 75.6073 75.5164 56.37 158.629C52.3435 176.95 47.1986 225.655 47.1986 225.655L1.34215 341.834C0.447394 344.069 0 345.856 0 348.537C0 358.591 7.82916 366.411 17.8952 366.411H47.6461V428.299C47.6461 476.334 86.7918 515.433 134.885 515.433H169.557V559H405.998V395.232C457.894 354.793 491 291.788 491 221.187C490.553 98.9756 391.458 0 268.876 0ZM101.779 268.999C88.3576 268.999 76.9494 258.052 76.9494 244.199C76.9494 230.794 87.9102 219.4 101.779 219.4C115.648 219.4 126.609 230.347 126.609 244.199C126.609 258.052 115.424 268.999 101.779 268.999ZM413.827 346.303C413.827 346.303 422.551 244.646 302.205 244.646C128.846 241.072 131.082 88.2514 131.082 88.2514C165.754 50.94 215.637 27.7042 270.665 27.7042C376.247 27.7042 462.591 113.498 462.591 219.4C462.591 267.659 443.801 312.119 413.827 346.303ZM427.248 135.617C425.682 133.829 424.117 132.265 422.327 130.701C416.287 125.116 409.8 119.977 403.09 115.285C385.418 102.55 365.957 92.0495 345.154 85.1235C331.509 80.6551 317.193 77.974 302.653 77.3037H294.153C271.56 77.974 249.638 84.4532 229.282 94.0603C210.492 103.221 192.821 115.062 176.939 128.914C174.926 130.925 172.689 132.712 170.676 134.946C169.781 136.064 168.662 137.404 168.439 138.968V141.649C168.662 143.66 170.005 145 171.347 146.341C174.478 149.469 177.61 152.15 180.742 154.831C189.018 161.757 197.518 168.013 206.69 173.598C207.361 174.045 208.256 174.492 208.927 174.939C224.585 184.546 241.362 192.366 259.033 197.281C270.441 200.409 282.297 202.42 294.153 202.867H302.429C324.575 202.196 346.272 195.94 366.181 186.557C386.537 176.95 405.327 164.438 421.88 149.469C423.893 147.681 425.682 146.117 427.248 143.883C427.696 143.213 428.143 142.319 428.367 141.202V138.521C428.367 137.627 427.919 136.51 427.248 135.617ZM238.901 151.256C240.914 161.98 245.836 172.258 252.994 180.301C231.743 172.705 212.282 161.087 194.61 147.235C191.703 145 188.795 142.543 185.887 140.085C195.729 131.372 206.466 123.775 217.874 116.849C229.059 110.147 240.691 104.561 252.994 100.093C246.507 107.689 241.585 116.626 239.349 126.456C237.559 134.5 237.335 142.99 238.901 151.256ZM382.287 161.534C370.207 169.13 357.457 175.609 343.812 180.301C351.417 171.588 356.562 161.087 358.352 149.692C360.365 137.404 358.352 124.669 352.983 113.498C350.523 108.359 347.391 103.891 343.812 99.6459C365.734 107.242 386.089 119.53 404.432 134.053C406.669 136.064 408.906 137.851 411.143 139.862C402.195 148.128 392.353 155.278 382.287 161.534Z" fill="white"/>
</svg>
